<svg width="29" height="28" viewBox="0 0 29 28" fill="none" xmlns="http://www.w3.org/2000/svg">
<path d="M22.5228 11.2915V10.4787C22.5228 6.01825 19.0365 2.40283 14.7408 2.40283C10.4452 2.40283 6.95891 6.01825 6.95891 10.4787V11.2915C6.9603 12.2617 6.68343 13.212 6.16112 14.0296L4.88373 16.0183C3.71818 17.8341 4.6082 20.3024 6.63611 20.8765C11.9349 22.3787 17.5468 22.3787 22.8456 20.8765C24.8735 20.3024 25.7635 17.8341 24.5979 16.0195L23.3205 14.0307C22.7978 13.2133 22.5206 12.263 22.5216 11.2927L22.5228 11.2915Z" stroke="#EB922A" stroke-width="1.5"/>
<path d="M9.55289 22.0017C10.308 24.0169 12.3452 25.4603 14.7408 25.4603C17.1365 25.4603 19.1736 24.0169 19.9288 22.0017" stroke="#EB922A" stroke-width="1.5" stroke-linecap="round"/>
</svg>
