<svg width="16" height="15" viewBox="0 0 16 15" fill="none" xmlns="http://www.w3.org/2000/svg">
<path d="M4.25 5.97656C4.25 6.18968 4.33466 6.39407 4.48536 6.54477C4.63606 6.69547 4.84045 6.78013 5.05357 6.78013C5.26669 6.78013 5.47108 6.69547 5.62178 6.54477C5.77248 6.39407 5.85714 6.18968 5.85714 5.97656C5.85714 5.76344 5.77248 5.55905 5.62178 5.40835C5.47108 5.25765 5.26669 5.17299 5.05357 5.17299C4.84045 5.17299 4.63606 5.25765 4.48536 5.40835C4.33466 5.55905 4.25 5.76344 4.25 5.97656ZM10.1429 5.97656C10.1429 6.18968 10.2275 6.39407 10.3782 6.54477C10.5289 6.69547 10.7333 6.78013 10.9464 6.78013C11.1595 6.78013 11.3639 6.69547 11.5146 6.54477C11.6653 6.39407 11.75 6.18968 11.75 5.97656C11.75 5.76344 11.6653 5.55905 11.5146 5.40835C11.3639 5.25765 11.1595 5.17299 10.9464 5.17299C10.7333 5.17299 10.5289 5.25765 10.3782 5.40835C10.2275 5.55905 10.1429 5.76344 10.1429 5.97656ZM8 0C3.85826 0 0.5 3.35826 0.5 7.5C0.5 11.6417 3.85826 15 8 15C12.1417 15 15.5 11.6417 15.5 7.5C15.5 3.35826 12.1417 0 8 0ZM12.4029 11.9029C11.8304 12.4754 11.1641 12.9241 10.4224 13.2388C9.65737 13.5636 8.84208 13.7277 8 13.7277C7.15792 13.7277 6.34263 13.5636 5.57589 13.2388C4.83539 12.9261 4.16275 12.4724 3.59542 11.9029C3.02288 11.3304 2.57422 10.6641 2.25949 9.92243C1.93638 9.15737 1.77232 8.34208 1.77232 7.5C1.77232 6.65792 1.93638 5.84263 2.26116 5.07589C2.5739 4.33539 3.02763 3.66275 3.5971 3.09542C4.16964 2.52288 4.83594 2.07422 5.57757 1.75949C6.34263 1.43638 7.15792 1.27232 8 1.27232C8.84208 1.27232 9.65737 1.43638 10.4241 1.76116C11.1646 2.0739 11.8372 2.52763 12.4046 3.0971C12.9771 3.66964 13.4258 4.33594 13.7405 5.07757C14.0636 5.84263 14.2277 6.65792 14.2277 7.5C14.2277 8.34208 14.0636 9.15737 13.7388 9.92411C13.4265 10.6643 12.9727 11.3365 12.4029 11.9029ZM10.5446 7.85156H9.7394C9.66908 7.85156 9.60882 7.90513 9.60379 7.97545C9.54018 8.80413 8.84542 9.4587 8 9.4587C7.15458 9.4587 6.45815 8.80413 6.39621 7.97545C6.39118 7.90513 6.33091 7.85156 6.2606 7.85156H5.45536C5.43719 7.85154 5.41921 7.85521 5.40251 7.86236C5.38581 7.8695 5.37074 7.87997 5.35821 7.89313C5.34568 7.90628 5.33596 7.92185 5.32964 7.93888C5.32331 7.95591 5.32052 7.97404 5.32143 7.99219C5.39509 9.40346 6.56864 10.5301 8 10.5301C9.43136 10.5301 10.6049 9.40346 10.6786 7.99219C10.6795 7.97404 10.6767 7.95591 10.6704 7.93888C10.664 7.92185 10.6543 7.90628 10.6418 7.89313C10.6293 7.87997 10.6142 7.8695 10.5975 7.86236C10.5808 7.85521 10.5628 7.85154 10.5446 7.85156Z" fill="#777676"/>
</svg>
