<svg width="18" height="15" viewBox="0 0 18 15" fill="none" xmlns="http://www.w3.org/2000/svg">
<path d="M12.6562 0.00176811C11.043 0.00176811 9.63047 0.695518 8.75 1.86817C7.86953 0.695518 6.45703 0.00176811 4.84375 0.00176811C3.55955 0.00321556 2.32837 0.514003 1.4203 1.42207C0.512235 2.33013 0.00144745 3.56132 0 4.84552C0 10.3143 8.10859 14.7408 8.45391 14.9236C8.54492 14.9726 8.64665 14.9982 8.75 14.9982C8.85335 14.9982 8.95508 14.9726 9.04609 14.9236C9.39141 14.7408 17.5 10.3143 17.5 4.84552C17.4986 3.56132 16.9878 2.33013 16.0797 1.42207C15.1716 0.514003 13.9404 0.00321556 12.6562 0.00176811ZM8.75 13.658C7.32344 12.8268 1.25 9.04005 1.25 4.84552C1.25124 3.89278 1.63026 2.97941 2.30396 2.30572C2.97765 1.63203 3.89101 1.25301 4.84375 1.25177C6.36328 1.25177 7.63906 2.06114 8.17188 3.36114C8.21896 3.47577 8.29907 3.57382 8.40201 3.64282C8.50494 3.71182 8.62607 3.74866 8.75 3.74866C8.87393 3.74866 8.99506 3.71182 9.09799 3.64282C9.20093 3.57382 9.28104 3.47577 9.32812 3.36114C9.86094 2.0588 11.1367 1.25177 12.6562 1.25177C13.609 1.25301 14.5224 1.63203 15.196 2.30572C15.8697 2.97941 16.2488 3.89278 16.25 4.84552C16.25 9.0338 10.175 12.826 8.75 13.658Z" fill="black"/>
</svg>
