<svg width="25" height="25" viewBox="0 0 25 25" fill="none" xmlns="http://www.w3.org/2000/svg">
<rect width="25" height="25" rx="12.5" fill="white"/>
<path d="M19.3104 10.0577C19.3104 9.82632 19.2209 9.60443 19.0615 9.44083C18.9021 9.27723 18.6859 9.18532 18.4604 9.18532C18.235 9.18532 18.0188 9.27723 17.8594 9.44083C17.7 9.60443 17.6104 9.82632 17.6104 10.0577H19.3104ZM7.41044 10.0577C7.41044 9.82632 7.32089 9.60443 7.16149 9.44083C7.00208 9.27723 6.78588 9.18532 6.56044 9.18532C6.33501 9.18532 6.11881 9.27723 5.9594 9.44083C5.8 9.60443 5.71044 9.82632 5.71044 10.0577H7.41044ZM19.5595 12.4192C19.7198 12.5781 19.9345 12.6661 20.1574 12.6641C20.3803 12.6621 20.5934 12.5703 20.751 12.4086C20.9086 12.2468 20.998 12.028 21 11.7993C21.0019 11.5706 20.9162 11.3502 20.7614 11.1857L19.5595 12.4192ZM12.5104 3.95105L13.1114 3.33428C12.952 3.17073 12.7358 3.07886 12.5104 3.07886C12.2851 3.07886 12.0689 3.17073 11.9095 3.33428L12.5104 3.95105ZM4.25949 11.1857C4.17831 11.2662 4.11356 11.3624 4.06901 11.4688C4.02446 11.5753 4.00101 11.6898 4.00003 11.8056C3.99905 11.9214 4.02056 12.0363 4.0633 12.1435C4.10604 12.2507 4.16915 12.3481 4.24896 12.43C4.32877 12.5119 4.42367 12.5767 4.52813 12.6206C4.6326 12.6644 4.74452 12.6865 4.85739 12.6855C4.97025 12.6845 5.08179 12.6604 5.18549 12.6147C5.28919 12.569 5.38299 12.5025 5.46139 12.4192L4.25949 11.1857ZM8.26044 20.5262H16.7604V18.7815H8.26044V20.5262ZM19.3104 17.9091V10.0577H17.6104V17.9091H19.3104ZM7.41044 17.9091V10.0577H5.71044V17.9091H7.41044ZM20.7614 11.1857L13.1114 3.33428L11.9095 4.56782L19.5595 12.4192L20.7614 11.1857ZM11.9095 3.33428L4.25949 11.1857L5.46139 12.4192L13.1114 4.56782L11.9095 3.33428ZM16.7604 20.5262C17.4367 20.5262 18.0853 20.2505 18.5636 19.7597C19.0418 19.2689 19.3104 18.6032 19.3104 17.9091H17.6104C17.6104 18.1405 17.5209 18.3624 17.3615 18.526C17.2021 18.6896 16.9859 18.7815 16.7604 18.7815V20.5262ZM8.26044 18.7815C8.03501 18.7815 7.81881 18.6896 7.6594 18.526C7.5 18.3624 7.41044 18.1405 7.41044 17.9091H5.71044C5.71044 18.6032 5.9791 19.2689 6.45732 19.7597C6.93554 20.2505 7.58414 20.5262 8.26044 20.5262V18.7815Z" fill="#EB922A"/>
</svg>
