<svg xmlns="http://www.w3.org/2000/svg" width="265.45" height="316.545" viewBox="0 0 265.45 316.545"><defs><style>.a{fill:#a98a75;}.b{fill:#fff;}.c{fill:#211715;}.d{fill:#f8b8b4;}</style></defs><path class="a" d="M87.268,159.017c-14.184,2.353-23.233-8.9-23.167-17.01a94.911,94.911,0,0,1,2.891-20.222c2.248-8.029,3.853-22.149,3.853-41.729-.959-28.89,6.64-49.84,18.62-61.31,7.222-6.914,23.5-16.333,41.781-16.333A66.373,66.373,0,0,1,157.787,7.5l8.138,4.033c3.526,2.064,4.784,3.833,8.413,7.31,9.112,8.731,15.445,24.44,16.454,38.508.291,4.058.861,13.75.593,21.925a152.246,152.246,0,0,0,5.833,41.576c2.336,7.892,5.472,18.047,2.949,25.882-3.079,9.563-14.123,15.448-23.714,12.032Z"/><path class="b" d="M91,72.238C99.669,65.135,109,56.287,117.535,47.9c-.364,3.07-1.636,8.319-1.842,11.495-.083,1.277.189,1.719,1.158,2.178a4.449,4.449,0,0,0,2.585-.119A61.906,61.906,0,0,0,150.3,38.983c1.69,6.492,4.087,14.573,6.174,18.512,5.159,9.742,13.915,17.947,21.7,20.322a7.234,7.234,0,0,1,5.236-1.893,6.709,6.709,0,0,1,6.015,3.372c2.034,3.56,1.922,10.106.531,14.15-.985,2.864-2.6,7.246-6.454,10.377a7.972,7.972,0,0,1-6.153,1.75l-.589-.1a46.935,46.935,0,0,1-2.137,5.732c-1.555,4.17-10.011,18.629-20.726,24.566.038,2.234-.03,3.043.175,5.856a13.739,13.739,0,0,0,.659,3.865,9.425,9.425,0,0,0,2.833,4.123c2.878,2.319,5.837,3.427,9.48,4.8l3.8,1.5c11.55,6.888-25.488,16.63-38.952,16.933-13.273-.3-55.463-6.762-38.584-16.678l4.446-1.75c3.644-1.371,6.6-2.479,9.481-4.8a9.442,9.442,0,0,0,2.833-4.123,13.7,13.7,0,0,0,.658-3.865c.191-2.608.146-3.494.167-5.389-5.006-2.409-9.494-6.247-13.763-11.4A55,55,0,0,1,86.77,105.11a7.814,7.814,0,0,1-6.643-1.689c-3.833-3.162-5.411-7.555-6.373-10.427-1.36-4.055-1.421-10.6.641-14.146a6.711,6.711,0,0,1,6.041-3.325,7.377,7.377,0,0,1,4.594,1.4C86.972,75.477,88.97,73.905,91,72.238Z"/><path class="b" d="M88.219,286.221H68.341c-4.322,7.453-14.162,11.307-21.552,9.592a29.065,29.065,0,0,1-18.055-13.192C21.856,271.007,16,241.346,10.323,225.74l31.233-18.622c4.169-15.566,10.861-30.065,24.408-39,5.977-3.942,17.284-8.927,24.415-11.783,4.707,2.58,10.661,5.837,10.661,5.837a84.957,84.957,0,0,0,61.975.1l8.825-5.532.322.125a173.908,173.908,0,0,1,27.77,12.619,58.692,58.692,0,0,1,18.423,16.805c2.951,4.129,7.093,14.157,9.426,24.046l26.56,15.4c-5.676,15.606-11.533,45.267-18.411,56.881a29.065,29.065,0,0,1-18.056,13.192c-7.389,1.715-17.229-2.139-21.551-9.592Z"/><path class="c" d="M175.329,101.441a54.777,54.777,0,0,1-3.2,9.576c.3-.72.025-.067-.046.083-.094.2-.184.4-.279.592q-.33.681-.687,1.347c-.583,1.094-1.206,2.167-1.856,3.222a57.446,57.446,0,0,1-12.5,14.7,22.775,22.775,0,0,1-9.17,4.7c-3.012.684-1.737,5.313,1.276,4.629,7.039-1.6,12.914-6.717,17.525-12.037a62.949,62.949,0,0,0,9.835-14.726c.166-.366.324-.735.477-1.107.04-.095.278-.652.135-.329-.162.365.051-.1.088-.182.138-.306.267-.618.4-.928.2-.476.39-.953.573-1.435a45.8,45.8,0,0,0,2.062-6.825c.632-3.014-3.994-4.3-4.628-1.276Z"/><path class="c" d="M83.55,102.2a58.041,58.041,0,0,0,8.126,19.3c4.152,6.284,9.609,12.166,16.225,15.889a32.388,32.388,0,0,0,11.009,3.814,2.477,2.477,0,0,0,2.952-1.677,2.418,2.418,0,0,0-1.676-2.952c-13.657-2.074-23.879-13.959-29.01-26.138a55.523,55.523,0,0,1-3-9.507c-.671-3.014-5.3-1.739-4.629,1.276Z"/><path class="c" d="M123.116,116.593a18.9,18.9,0,0,0,9.092,2.138,14.8,14.8,0,0,0,9.2-2.685,2.413,2.413,0,0,0,0-3.394,2.462,2.462,0,0,0-3.394,0c.733-.567.17-.141-.017-.022s-.371.223-.563.323c-.1.052-.2.1-.3.149-.375.19.036-.1.1-.037a6.066,6.066,0,0,0-.776.278,13.192,13.192,0,0,1-2.168.486c.358-.05-.043,0-.2.014q-.318.03-.639.05c-.512.031-1.026.042-1.54.037-.46-.005-.92-.022-1.379-.055-.21-.015-.421-.036-.631-.055-.777-.071.434.084-.293-.035a15.7,15.7,0,0,1-2.023-.458c-.283-.086-.559-.188-.839-.285-.609-.213.363.187-.186-.076-.346-.166-.688-.337-1.027-.518a2.4,2.4,0,0,0-2.422,4.145Z"/><path class="c" d="M131.054,95.217a42.855,42.855,0,0,1,.984,4.591l-.085-.638a2.736,2.736,0,0,1,.014.633l.086-.638a1.467,1.467,0,0,1-.071.285l.242-.574a1.051,1.051,0,0,1-.1.183l.375-.486a.948.948,0,0,1-.15.147l.486-.375a3,3,0,0,1-.364.191l.573-.242a2.621,2.621,0,0,1-.613.176l.638-.085a2.458,2.458,0,0,1-.575,0l.638.086c-.217-.031-.429-.085-.646-.115a1.812,1.812,0,0,0-.957-.042,1.783,1.783,0,0,0-.892.284,2.4,2.4,0,0,0-.861,3.284,2.3,2.3,0,0,0,1.434,1.1c.5.069.98.2,1.486.219a4.75,4.75,0,0,0,2.2-.519,3.176,3.176,0,0,0,1.762-2.093,5.227,5.227,0,0,0-.018-2.251c-.244-1.479-.579-2.945-.954-4.4a2.4,2.4,0,0,0-4.628,1.276Z"/><path class="c" d="M106.9,82.111c-.776,2.486-.3,8.215,4.415,8.72,6.233-.013,6.592-6.935,4.506-10.2C114.109,77.961,109.062,76.833,106.9,82.111Z"/><path class="c" d="M156.808,82.306c.756,2.492.235,8.216-4.483,8.685-6.233-.062-6.538-6.986-4.427-10.233C149.626,78.1,154.682,77.011,156.808,82.306Z"/><path class="c" d="M179.869,79.514a5.164,5.164,0,0,1,4.48-1.084,4.779,4.779,0,0,1,2,.86c-.2-.149.308.3.369.359.081.084.55.686.245.258,1.745,2.447,1.77,5.973,1.52,8.864a22.265,22.265,0,0,1-2.755,8.552c-1.46,2.669-4.223,6.431-7.747,5.936a2.481,2.481,0,0,0-2.952,1.676,2.416,2.416,0,0,0,1.676,2.952c8.392,1.179,13.26-6.921,15.56-13.8a24.217,24.217,0,0,0,.819-11.074c-.446-3.026-1.65-5.965-4.206-7.786a10.174,10.174,0,0,0-12.407.9c-2.307,2.063,1.1,5.448,3.4,3.394Z"/><path class="c" d="M87.354,75.76a10.273,10.273,0,0,0-11.3-1.617A9.932,9.932,0,0,0,71,81.013a25.922,25.922,0,0,0,3.842,20.044c2.548,3.782,6.553,7.207,11.425,6.561a2.479,2.479,0,0,0,2.4-2.4c0-1.164-1.106-2.571-2.4-2.4-3.883.515-6.545-2.669-8.244-5.772a22.238,22.238,0,0,1-2.764-8.734c-.227-2.88-.186-6.42,1.6-8.849-.308.418.086-.091.169-.17s.63-.565.456-.436a4.755,4.755,0,0,1,2.011-.84,5.17,5.17,0,0,1,4.468,1.137c2.282,2.073,5.686-1.312,3.394-3.394Z"/><path class="c" d="M148.127,40.183c1.694,6.411,3.367,13.22,6.569,19.077A50.706,50.706,0,0,0,168.37,75.244a30.211,30.211,0,0,0,9.163,4.887c2.954.928,4.218-3.7,1.277-4.628-7.111-2.233-13.061-8.23-17.211-14.209-4.663-6.718-6.777-14.566-8.844-22.387-.788-2.984-5.419-1.719-4.628,1.276Z"/><path class="c" d="M148.183,37.828a61.061,61.061,0,0,1-14.822,14.208,60.685,60.685,0,0,1-9.21,5.078c-1.561.693-3.164,1.3-4.783,1.838a6.3,6.3,0,0,1-1.276.365c-.1.011-.256-.033-.337,0-.463.178-.011-.132.038.049.062.231.226.778.291.548a7.179,7.179,0,0,0,.058-1.115c.347-3.662,1.338-7.245,1.793-10.9.269-2.167-2.745-3.025-4.1-1.7-8.607,8.45-17.347,16.808-26.68,24.461a2.417,2.417,0,0,0,0,3.394,2.455,2.455,0,0,0,3.394,0c9.333-7.653,18.073-16.011,26.681-24.461l-4.1-1.7c-.426,3.417-1.449,7.268-1.793,10.9-.189,2,.314,3.771,2.163,4.78,2.053,1.121,4.435.275,6.457-.455A64.383,64.383,0,0,0,143,50.578a69.137,69.137,0,0,0,9.326-10.327,2.415,2.415,0,0,0-.861-3.284,2.457,2.457,0,0,0-3.283.861Z"/><path class="c" d="M188.985,79.273a158.394,158.394,0,0,0,6.084,42.773c3.036,10.244,7.349,23.875-2.685,31.708a16.272,16.272,0,0,1-15.293,2.7c-2.927-1.009-4.184,3.626-1.276,4.628,11.173,3.851,24.133-3.414,26.985-14.824,1.658-6.636.172-13.72-1.576-20.179-1.9-7.019-3.989-13.9-5.227-21.087a165.667,165.667,0,0,1-2.212-25.714c-.045-3.086-4.845-3.095-4.8,0Z"/><path class="c" d="M164.714,13.6a24.413,24.413,0,0,1,4.752,3.789c1.722,1.709,3.516,3.369,5.135,5.177a50.049,50.049,0,0,1,7.7,11.978,66.823,66.823,0,0,1,4.853,14.4,80.028,80.028,0,0,1,1.516,12.808c.319,5.832.5,11.683.317,17.523-.1,3.09,4.7,3.087,4.8,0,.17-5.5.018-11-.262-16.491a96.758,96.758,0,0,0-1.416-13.533c-2-10.309-6.25-20.537-12.935-28.7-1.778-2.17-3.834-4.07-5.812-6.052a31.8,31.8,0,0,0-6.224-5.04c-2.661-1.583-5.078,2.565-2.422,4.145Z"/><path class="c" d="M158.425,5.182A70.828,70.828,0,0,0,129.044.058,67.2,67.2,0,0,0,99.356,8.727,52.6,52.6,0,0,0,82.177,23.514a66.927,66.927,0,0,0-10.132,21.9c-3.087,11.235-3.968,23.03-3.6,34.641.1,3.081,4.9,3.095,4.8,0-.556-17.558,1.6-36.554,11.36-51.627A45.421,45.421,0,0,1,98.94,14.544a63.4,63.4,0,0,1,26.414-9.411,66.189,66.189,0,0,1,31.8,4.678A2.415,2.415,0,0,0,160.1,8.135a2.459,2.459,0,0,0-1.676-2.953Z"/><path class="c" d="M68.445,80.056c-.006,8.11-.25,16.23-1,24.308a99.517,99.517,0,0,1-2.516,15.845,98.143,98.143,0,0,0-3.185,20.223,19.5,19.5,0,0,0,5.735,14.592c5.363,5.529,12.942,7.488,20.426,6.308a2.418,2.418,0,0,0,1.676-2.953A2.459,2.459,0,0,0,86.63,156.7a17.95,17.95,0,0,1-15.346-4.662,17.554,17.554,0,0,1-3.827-5.516,14.615,14.615,0,0,1-.892-3.21c-.044-.286,0,.009.008.056-.017-.152-.033-.306-.042-.46-.014-.227-.026-.453-.029-.68-.011-.71.024-1.423.059-2.132a94.083,94.083,0,0,1,3.025-18.721,105.018,105.018,0,0,0,2.523-15.6c.861-8.542,1.13-17.14,1.136-25.721,0-3.089-4.8-3.094-4.8,0Z"/><path class="c" d="M108.486,137.023c-.006,1.2-.023,2.392-.094,3.588a13.948,13.948,0,0,1-.63,4.231c-1.05,2.646-3.413,4.1-5.92,5.322-3.111,1.518-6.491,2.626-9.72,3.9a2.474,2.474,0,0,0-1.676,2.952A2.418,2.418,0,0,0,93.4,158.69c3.886-1.53,7.989-2.834,11.675-4.793a20.082,20.082,0,0,0,4.316-2.986,12.3,12.3,0,0,0,2.878-4.5c1.142-2.868,1-6.338,1.019-9.389.017-3.09-4.783-3.093-4.8,0Z"/><path class="c" d="M151.507,137.023c.016,3.051-.122,6.521,1.02,9.389a12.285,12.285,0,0,0,2.878,4.5,20.1,20.1,0,0,0,4.315,2.986c3.686,1.959,7.789,3.263,11.675,4.793a2.416,2.416,0,0,0,2.952-1.677,2.455,2.455,0,0,0-1.676-2.952c-3.229-1.271-6.609-2.379-9.719-3.9-2.5-1.22-4.883-2.676-5.921-5.322a14.109,14.109,0,0,1-.629-4.231c-.071-1.195-.088-2.391-.095-3.588-.016-3.088-4.816-3.095-4.8,0Z"/><path class="c" d="M169.065,158.225c9.735,3.794,19.48,7.481,28.572,12.7,8.684,4.987,16.8,12.037,21.265,21.151a90.97,90.97,0,0,1,6.565,18.9c.716,3,5.346,1.732,4.628-1.276a101.86,101.86,0,0,0-6.12-18.065,47.385,47.385,0,0,0-8.331-12.53c-7.759-8.561-17.941-14.052-28.359-18.714-5.565-2.491-11.268-4.583-16.944-6.795a2.417,2.417,0,0,0-2.952,1.676,2.454,2.454,0,0,0,1.676,2.952Z"/><path class="c" d="M90.807,153.6q-6.876,2.713-13.589,5.828a96.2,96.2,0,0,0-12.466,6.621c-8.719,5.742-15.169,14.141-19.526,23.55a105.146,105.146,0,0,0-5.984,16.884c-.8,2.987,3.825,4.261,4.628,1.276,2.548-9.462,6.058-18.773,11.919-26.716a45.076,45.076,0,0,1,10.1-9.967,80.327,80.327,0,0,1,12-6.676q6.988-3.333,14.2-6.172a2.472,2.472,0,0,0,1.676-2.952,2.416,2.416,0,0,0-2.952-1.676Z"/><path class="d" d="M187.936,187.12c.222,5.338.426,10.151.5,13.75.98,12.22,3.67,25.574,5.35,51.594,0,0,.433,0,1.1,0-.945,19.69-2.387,49.453-2.869,61.533-13.82,0-109.317.117-120.392.1-.479-12.018-1.926-41.891-2.874-61.634.664,0,1.1,0,1.1,0,1.68-26.02,4.37-39.374,5.35-51.594.2-9.188,1.215-26.275,1.277-39.846a1.987,1.987,0,0,1,1.183-1.81l8.886-3.961a2,2,0,0,1,2.815,1.829c-.05,11.774-.337,32.359-.337,41.821,9.147,0,61.616.7,84.084.222-.059-12.742.182-28.468.063-41.5a2,2,0,0,1,2.667-1.9l9.983,3.54a1.988,1.988,0,0,1,1.33,1.869C187.206,169.366,187.593,178.871,187.936,187.12Z"/><path class="c" d="M192.319,311.909c.5-.441.758-.246.289-.316a3.326,3.326,0,0,0-.489,0h-1.234l-3.3,0-10,.009-28.83.028q-16.714.018-33.43.033-14.388.014-28.777.025c-5.089,0-10.233-.216-15.318,0a2.1,2.1,0,0,0-.286,0c-.39.074-.061-.366.382.149a2.421,2.421,0,0,0-3.394,0,2.448,2.448,0,0,0,0,3.394c1.455,1.693,4.373,1.26,6.418,1.26l8.808,0q13.911-.009,27.823-.023l34-.033,30.3-.03c5.738-.006,11.479.035,17.217-.014a4.658,4.658,0,0,0,3.219-1.09c2.325-2.043-1.081-5.427-3.394-3.394Z"/><path class="c" d="M65.654,237.589q.633,13.718,1.31,27.433.835,17.4,1.646,34.806c.217,4.755.434,9.511.624,14.268.123,3.078,4.924,3.094,4.8,0-.385-9.635-.852-19.267-1.307-28.9q-.813-17.2-1.646-34.4-.318-6.6-.627-13.211c-.142-3.076-4.943-3.093-4.8,0Z"/><path class="c" d="M193.2,237.589q-.633,13.718-1.311,27.433-.835,17.4-1.645,34.806c-.218,4.755-.435,9.511-.625,14.268-.123,3.089,4.677,3.083,4.8,0,.385-9.635.852-19.267,1.307-28.9q.814-17.2,1.647-34.4.317-6.6.627-13.211c.142-3.088-4.658-3.081-4.8,0Z"/><path class="c" d="M72.264,252.464c.736-11.319,1.872-22.595,3.3-33.846.5-3.925,1.021-7.846,1.465-11.777s.622-7.835.771-11.79c.217-5.765.483-11.528.694-17.294.114-3.118.216-6.237.289-9.357q.054-2.282.085-4.564.014-1.01.02-2.018l0-.4q.063-.726-.084-.126c.033-.022.056.008.088-.011.934-.532,2.01-.9,2.991-1.333l4.624-2.061a4.634,4.634,0,0,0,1.2-.534c-.1.107-.276.024-.577.043-.066,0-.221-.261-.159-.313a4.33,4.33,0,0,0,0,.867q-.018,3.581-.051,7.162c-.1,11.263-.279,22.526-.282,33.789a2.436,2.436,0,0,0,2.4,2.4c8.722,0,17.444.137,26.166.208,13.2.108,26.4.2,39.605.178,6.1-.01,12.21-.036,18.313-.164a2.437,2.437,0,0,0,2.4-2.4c-.053-12.148.127-24.295.092-36.443q-.006-2.115-.022-4.229l0-.414q.069-.747-.1-.148a2.009,2.009,0,0,0-.27.13c.012.037.064.008.112.063.187.21.849.3,1.112.4l2.156.764,4.679,1.659c.5.177,1,.355,1.5.53.937.329-.242-.2,0-.293a27.225,27.225,0,0,0,.044,4.035q.039,2.295.1,4.59.117,4.458.289,8.914c.2,5.408.449,10.813.654,16.22.143,3.757.284,7.469.695,11.208.4,3.642.88,7.276,1.344,10.911,1.5,11.785,2.73,23.589,3.5,35.447a2.457,2.457,0,0,0,2.4,2.4,2.421,2.421,0,0,0,2.4-2.4c-.736-11.319-1.872-22.595-3.3-33.846-.5-3.925-1.02-7.846-1.464-11.777s-.622-7.823-.771-11.772c-.217-5.746-.481-11.49-.692-17.236q-.171-4.665-.289-9.332-.049-2.073-.08-4.147c-.023-1.55.213-3.372-.365-4.83-.71-1.789-2.26-2.391-3.905-2.975l-4.545-1.611c-3.124-1.108-7.576-3.395-9.567.823-.751,1.59-.414,3.711-.407,5.424q.014,2.709.01,5.416,0,5.377-.036,10.753c-.037,7.257-.092,14.514-.06,21.771l2.4-2.4c-11.889.25-23.787.186-35.677.133q-18.466-.084-36.931-.274c-3.825-.034-7.651-.08-11.476-.081l2.4,2.4c0-10.55.167-21.1.263-31.65q.036-3.894.061-7.788a13.019,13.019,0,0,0-.171-3.653,4.4,4.4,0,0,0-3.808-3.093c-1.532-.14-2.952.692-4.317,1.3l-5.026,2.241c-1.335.595-2.757,1.049-3.6,2.341-.882,1.344-.744,2.884-.76,4.422q-.027,2.478-.085,4.956c-.146,6.429-.41,12.855-.677,19.28-.209,5.03-.177,10.123-.63,15.135-.354,3.9-.846,7.794-1.342,11.682-1.629,12.768-3.043,25.539-3.878,38.387a2.4,2.4,0,1,0,4.8,0Z"/><path class="b" d="M8.351,201.906a45.864,45.864,0,0,0-3.3-5.867A13.723,13.723,0,0,1,2.409,187.3a15.909,15.909,0,0,1,1.487-5.34c3.256-4.826,6.07-9.043,9.444-13.121a35.251,35.251,0,0,1,2.6-2.714,7.921,7.921,0,0,1,5.542-2.155,6.577,6.577,0,0,1,4.666,2.708c4.281,1.459,5.221-1.225,7.168-2.687a7.462,7.462,0,0,1,7.319-.469,18.6,18.6,0,0,1,5.987,4.728,10.487,10.487,0,0,1,2.546,5.383,3.936,3.936,0,0,1-1.242,3.49,6.344,6.344,0,0,1-4.951,1.69c1.372,2.95,2.388,5.139,2.388,5.139a7.262,7.262,0,0,1,.5,3.08,5.015,5.015,0,0,1-.115,1.26,5.381,5.381,0,0,1-.555,1.231c-2.031,3.654-5.683,7.94-4.131,12.459,3.808,11.873,3.121,17.74-.773,20.989a27.753,27.753,0,0,1-10.59,5.342c-1.077.2-6.028.93-7.014.451-1.938-.94-3.832-1.424-5.241-3.2a13.416,13.416,0,0,1-2.284-5.073c-.551-2.175-2.262-7.564-3.564-11.077A80.8,80.8,0,0,0,8.351,201.906Z"/><path class="c" d="M28.464,165.955a8.318,8.318,0,0,0-6.1-4.282c-3.256-.5-6.362,1.028-8.636,3.255C9.163,169.4,5.612,175.049,2.094,180.35c-3.06,4.611-2.555,11.15.148,15.76,1.214,2.071,2.539,4.016,3.622,6.172,1.1,2.187,2.13,4.417,3.014,6.7.952,2.457,1.781,4.964,2.58,7.473.732,2.3,1.236,4.72,2.1,6.973,1.029,2.69,2.512,4.688,5.24,5.725a22.349,22.349,0,0,0,7.283,1.176,23.252,23.252,0,0,0,16.058-5.79c2.842-2.5,3.872-6.261,3.849-9.939a37.028,37.028,0,0,0-1.326-8.817c-.442-1.738-1.169-3.454-1.5-5.209a6.722,6.722,0,0,1,.7-3.932c1.3-2.884,3.892-5.457,4.418-8.636.619-3.748-1.207-7.54-4.946-8.685-2.96-.906-4.226,3.726-1.276,4.629,2.135.654,1.656,3.359.8,4.838A48.44,48.44,0,0,0,39.08,195.7a11.446,11.446,0,0,0-.04,7.863,54.917,54.917,0,0,1,1.875,7.7,20.817,20.817,0,0,1,.18,5.3,14.583,14.583,0,0,1-.483,1.955c-.044.137-.1.275-.152.407.169-.41.025-.071-.015.007a11.119,11.119,0,0,1-.614,1.064c-.072.112-.153.223-.234.327.3-.388.017-.032-.069.056-.212.215-.412.436-.634.641a17.214,17.214,0,0,1-3.039,2.144,16.846,16.846,0,0,1-6.753,2.29,25.4,25.4,0,0,1-5.89-.135,14.2,14.2,0,0,1-2.876-.688,2.3,2.3,0,0,1-1.3-.905c-1.25-1.661-1.547-3.916-2.125-5.865-.667-2.253-1.394-4.489-2.16-6.71A88.754,88.754,0,0,0,9.271,198.43c-1.006-1.9-2.332-3.608-3.305-5.511a11.045,11.045,0,0,1-1.107-6.04,13.519,13.519,0,0,1,.947-3.454c.345-.739,1.6-2.39,2.278-3.384,1.713-2.521,3.446-5.036,5.308-7.45a40.327,40.327,0,0,1,2.909-3.444,9.044,9.044,0,0,1,3.029-2.394c1.756-.691,4.065-.436,4.99,1.625a2.418,2.418,0,0,0,3.283.861,2.459,2.459,0,0,0,.861-3.284Z"/><path class="c" d="M19.715,181.394l.34-.444c-.444.58.021-.025.11-.14q.441-.566.886-1.129.933-1.184,1.876-2.359c1.168-1.459,2.341-2.915,3.539-4.35.322-.387.637-.79.989-1.151a2.041,2.041,0,0,1,.624-.465q.392-.192.079-.055a4.3,4.3,0,0,1,.445-.135c.287-.056.3-.064.039-.026.15-.012.3-.017.452-.014.289.022.3.015.036-.019a4.42,4.42,0,0,1,.442.1q.4.143.072-.006.212.1.413.212a2.516,2.516,0,0,1,.962.86c-.239-.311.222.416.265.488q.184.387.036.053c.053.141.1.284.14.428s.073.286.1.431c-.028-.278-.029-.275,0,.008a7.38,7.38,0,0,1-.031.841,2.415,2.415,0,0,0,2.4,2.4,2.455,2.455,0,0,0,2.4-2.4,7.764,7.764,0,0,0-3.252-6.854,6.9,6.9,0,0,0-7.523-.4A11.081,11.081,0,0,0,22.7,170.03q-1.7,2.055-3.357,4.14c-1.271,1.589-2.534,3.184-3.769,4.8a2.413,2.413,0,0,0,.861,3.283,2.459,2.459,0,0,0,3.284-.861Z"/><path class="c" d="M28.727,184.691c1.53-1.9,3.207-3.712,4.885-5.479.739-.778,1.5-1.523,2.28-2.261.338-.321.007.018-.056.03.059-.011.494-.2-.077,0,.182-.063.364-.1.55-.149-.537.133.093.052.255.034.343-.039-.363-.1-.021-.015.137.032.275.055.411.092.153.04.706.277.325.084.22.111.425.252.644.362.325.165-.33-.146-.041-.031.067.026.132.138.184.186-.062-.057-.273-.422-.033-.042.07.111.14.221.2.335s.121.239.183.358c-.02-.039-.117-.359-.049-.1.06.225.135.447.2.672.019.07.031.366.017.059a1.066,1.066,0,1,0-.011.137c-.1.217.095-.15.05-.217.041.061-.11.46-.136.547-.034.112-.072.223-.112.333.119-.33-.018.041-.045.095-.13.258-.264.512-.41.762a15.538,15.538,0,0,1-.914,1.375c-.09.123-.182.244-.274.366-.326.434.235-.3-.045.06q-.384.492-.772.98-1.889,2.374-3.844,4.7a2.4,2.4,0,0,0,3.4,3.394q1.986-2.355,3.9-4.77c1.5-1.893,3.289-3.923,3.838-6.345a6.782,6.782,0,0,0-3.409-7.307,7.535,7.535,0,0,0-4.571-.755,6.509,6.509,0,0,0-3.485,2.1,79.661,79.661,0,0,0-6.408,7.027,2.459,2.459,0,0,0,0,3.394,2.425,2.425,0,0,0,3.394,0Z"/><path class="c" d="M31.812,168.51c1.1-.774,2.029-2,3.066-2.684a4.253,4.253,0,0,1,2.984-.6,7.794,7.794,0,0,1,2.921,1.075,15.344,15.344,0,0,1,2.858,2.317c1.561,1.544,3.356,3.618,3.164,5.941.012-.15-.1.221-.1.228a3.036,3.036,0,0,1-.2.339q.188-.2-.1.122c-.135.151-.281.276-.426.414.4-.375-.037.024-.158.1a3.215,3.215,0,0,1-1.221.549,4.435,4.435,0,0,1-1.729.1,2.418,2.418,0,0,0-2.4,2.4,2.45,2.45,0,0,0,2.4,2.4,8.625,8.625,0,0,0,6.928-2.566c2.187-2.4,2.1-5.4.916-8.264a17.374,17.374,0,0,0-5.279-6.6,13.321,13.321,0,0,0-8-3.37,9.225,9.225,0,0,0-4.615,1.066c-1.362.732-2.224,2.05-3.429,2.9a2.466,2.466,0,0,0-.861,3.284,2.421,2.421,0,0,0,3.284.861Z"/><path class="b" d="M257.128,201.906a45.864,45.864,0,0,1,3.3-5.867,13.723,13.723,0,0,0,2.644-8.737,15.909,15.909,0,0,0-1.487-5.34c-3.256-4.826-6.07-9.043-9.445-13.121a35.049,35.049,0,0,0-2.6-2.714A7.922,7.922,0,0,0,244,163.972a6.577,6.577,0,0,0-4.666,2.708c-4.281,1.459-5.221-1.225-7.168-2.687a7.462,7.462,0,0,0-7.319-.469,18.6,18.6,0,0,0-5.987,4.728,10.487,10.487,0,0,0-2.546,5.383,3.936,3.936,0,0,0,1.242,3.49,6.344,6.344,0,0,0,4.951,1.69c-1.372,2.95-2.389,5.139-2.389,5.139a7.277,7.277,0,0,0-.5,3.08,4.969,4.969,0,0,0,.115,1.26,5.339,5.339,0,0,0,.555,1.231c2.031,3.654,5.683,7.94,4.13,12.459-3.808,11.873-3.12,17.74.774,20.989a27.753,27.753,0,0,0,10.59,5.342c1.077.2,6.028.93,7.014.451,1.937-.94,3.832-1.424,5.241-3.2a13.416,13.416,0,0,0,2.284-5.073c.551-2.175,2.262-7.564,3.563-11.077A81.11,81.11,0,0,1,257.128,201.906Z"/><path class="c" d="M241.159,168.378a3.3,3.3,0,0,1,1.693-1.626,2.848,2.848,0,0,1,2.321-.279c2.372.477,4.086,2.626,5.548,4.406,1.729,2.1,3.323,4.312,4.877,6.545q1.171,1.684,2.317,3.385c.442.654.887,1.307,1.325,1.964a3.946,3.946,0,0,1,.536.921,10.88,10.88,0,0,1,.811,5.88c-.375,2.462-1.681,4.292-2.955,6.348a70.784,70.784,0,0,0-5.768,12.064c-1.577,4.143-2.84,8.381-4.063,12.638a9.569,9.569,0,0,1-1.357,3.093c-.081.109-.153.2-.241.3-.392.452.336-.171-.212.177a3.9,3.9,0,0,1-.848.424,19.878,19.878,0,0,1-18.558-3.611c-.2-.181-.379-.377-.567-.567-.055-.055-.475-.57-.136-.13-.081-.1-.163-.216-.234-.327-.185-.288-.354-.579-.522-.878-.067-.12-.125-.251-.182-.376.214.468-.06-.169-.078-.224a10.929,10.929,0,0,1-.566-4.345,33.466,33.466,0,0,1,1.255-7.521c.805-3.074,2.043-5.874,1.394-9.1-.585-2.911-2.322-5.454-3.838-7.948a5.542,5.542,0,0,1-1.234-3.335,2.393,2.393,0,0,1,1.552-2.306c2.945-.9,1.689-5.537-1.276-4.629a7.338,7.338,0,0,0-5.084,7.322c.029,3.078,2.064,5.515,3.533,8.059a13.587,13.587,0,0,1,1.636,3.741,6.9,6.9,0,0,1-.428,3.84,54.711,54.711,0,0,0-2.063,9.027c-.5,3.857-.393,8.159,1.99,11.427,3.188,4.372,9.141,6.921,14.379,7.482a28.682,28.682,0,0,0,7.263-.255c2.157-.322,4.641-.93,6.218-2.548,1.959-2.011,2.61-4.831,3.352-7.437.724-2.543,1.546-5.062,2.408-7.561a73.312,73.312,0,0,1,6.114-13.568c1.462-2.461,3.061-4.684,3.657-7.557a15.831,15.831,0,0,0-.378-7.8c-.921-3.171-3.145-5.812-5.007-8.487a83.147,83.147,0,0,0-6.5-8.54c-2.4-2.633-5.119-4.777-8.836-4.887a8.337,8.337,0,0,0-7.388,4.38,2.473,2.473,0,0,0,.861,3.284,2.418,2.418,0,0,0,3.283-.861Z"/><path class="c" d="M249.909,178.972c-2.181-2.857-4.432-5.662-6.713-8.44a17.406,17.406,0,0,0-2.162-2.452,7,7,0,0,0-7.933-.866,7.761,7.761,0,0,0-3.948,7.309,2.472,2.472,0,0,0,2.4,2.4,2.415,2.415,0,0,0,2.4-2.4,7.617,7.617,0,0,1-.03-.841c.024-.283.023-.286,0-.008.027-.145.061-.289.1-.431s.087-.287.14-.428q-.148.335.035-.053c.043-.072.505-.8.266-.488a2.514,2.514,0,0,1,.961-.86q.2-.115.414-.212c-.217.1-.194.1.072.006a4.42,4.42,0,0,1,.442-.1c-.265.034-.253.041.035.019.152,0,.3,0,.453.014-.261-.038-.249-.03.039.026a4.379,4.379,0,0,1,.445.135c-.209-.091-.182-.073.079.055a1.886,1.886,0,0,1,.624.465c.352.361.666.764.989,1.151,1.2,1.435,2.37,2.891,3.539,4.35q.942,1.176,1.876,2.359.444.564.886,1.129c.089.115.554.72.109.14l.341.444a2.478,2.478,0,0,0,3.284.861,2.416,2.416,0,0,0,.861-3.283Z"/><path class="c" d="M240.146,181.3c-1.76-2.183-3.694-4.283-5.661-6.282a9.755,9.755,0,0,0-3.4-2.632,6.466,6.466,0,0,0-4.139.016,6.808,6.808,0,0,0-3.641,2.675,7.166,7.166,0,0,0-1.2,3.881c.019,2.673,1.934,4.984,3.5,6.981q2.153,2.745,4.408,5.41a2.41,2.41,0,0,0,3.394,0,2.463,2.463,0,0,0,0-3.394q-1.7-2.023-3.358-4.089-.417-.519-.831-1.043l-.324-.413c-.067-.085-.139-.17-.2-.259.064.09.282.37.1.124a16.162,16.162,0,0,1-1.585-2.449c-.023-.046-.222-.508-.129-.269.081.21-.048-.155-.049-.158-.043-.147-.084-.293-.125-.441s.023-.341-.019-.065c-.062.407.14-.6-.007.06.058-.26.123-.512.2-.768.033-.112.192-.386-.014.008.046-.089.088-.181.136-.27a4.529,4.529,0,0,1,.362-.58c-.36.481.245-.169.008.028s.034-.016.08-.042c.149-.086.314-.165.461-.257.222-.139-.036.012-.086.029.134-.045.267-.094.4-.133s.759-.13.5-.119c-.276.013.411.022.492.018-.079,0-.361-.124-.154-.018a3.716,3.716,0,0,0,.456.13c-.021-.007-.391-.172-.157-.042.287.159-.264-.293-.045-.045.15.17.347.317.511.473.39.37.771.75,1.147,1.134,1.935,1.975,3.841,4.043,5.576,6.195a2.406,2.406,0,0,0,3.394,0,2.469,2.469,0,0,0,0-3.394Z"/><path class="c" d="M236.09,164.365c-1.042-.734-1.846-1.873-2.948-2.608a8.758,8.758,0,0,0-4.1-1.327,11.742,11.742,0,0,0-7.785,2.4,19.885,19.885,0,0,0-5.848,6.147c-1.408,2.595-2.322,6.046-.5,8.674a8.548,8.548,0,0,0,7.705,3.553,2.462,2.462,0,0,0,2.4-2.4,2.418,2.418,0,0,0-2.4-2.4,4.206,4.206,0,0,1-2.856-.587c-.127-.078-.655-.543-.252-.159-.144-.137-.293-.265-.426-.414-.271-.3-.058,0-.237-.345-.058-.111-.169-.421-.163-.344-.193-2.322,1.6-4.4,3.164-5.941A15.491,15.491,0,0,1,224.7,166.3a7.914,7.914,0,0,1,2.92-1.075,4.293,4.293,0,0,1,2.866.527c1.1.679,2.051,1.96,3.185,2.76a2.422,2.422,0,0,0,3.284-.861,2.452,2.452,0,0,0-.861-3.284Z"/><path class="c" d="M66.269,285.009a18.8,18.8,0,0,1-16.254,8.8c-6.8-.165-13.909-4.9-17.851-10.338-3.48-4.8-5.246-10.374-7.064-15.98-2.227-6.873-4.108-13.854-6.018-20.819-1.982-7.231-3.891-14.517-6.445-21.572a2.463,2.463,0,0,0-2.952-1.676,2.421,2.421,0,0,0-1.677,2.952c5,13.8,7.9,28.275,12.412,42.23,1.942,6.009,4,12.478,7.825,17.595,4.834,6.47,12.48,11.615,20.671,12.346a23.528,23.528,0,0,0,21.5-11.117c1.58-2.663-2.568-5.08-4.145-2.423Z"/><path class="c" d="M194.25,287.432a23.763,23.763,0,0,0,18.96,11.158c7.878.423,15.968-4.152,21.132-9.84,4.524-4.981,6.929-11.343,9.066-17.621,2.437-7.158,4.414-14.469,6.413-21.759,2.111-7.7,4.113-15.476,6.834-22.992a2.421,2.421,0,0,0-1.676-2.952,2.449,2.449,0,0,0-2.952,1.676c-4.722,13.043-7.573,26.709-11.688,39.945-1.742,5.6-3.463,11.176-6.369,16.171a26.266,26.266,0,0,1-17.33,12.406c-6.826,1.291-14.72-2.676-18.245-8.615-1.575-2.654-5.727-.242-4.145,2.423Z"/><path class="c" d="M100.4,164.487c15.816,6.478,33.855,7.508,50.488,3.962a76.671,76.671,0,0,0,12.763-3.859,2.475,2.475,0,0,0,1.676-2.952,2.415,2.415,0,0,0-2.952-1.677,82.57,82.57,0,0,1-48.475,3.687,75.648,75.648,0,0,1-12.224-3.79,2.417,2.417,0,0,0-2.953,1.676,2.461,2.461,0,0,0,1.677,2.953Z"/></svg>