<svg width="12" height="15" viewBox="0 0 12 15" fill="none" xmlns="http://www.w3.org/2000/svg">
<path d="M1.64254 6.24972V13.75C1.64254 13.8485 1.72254 13.9285 1.82111 13.9285H10.75C10.7973 13.9285 10.8427 13.9097 10.8762 13.8762C10.9097 13.8427 10.9285 13.7973 10.9285 13.75V6.24972C10.9285 6.20236 10.9097 6.15694 10.8762 6.12345C10.8427 6.08996 10.7973 6.07115 10.75 6.07115H8.9642C8.82211 6.07115 8.68585 6.0147 8.58538 5.91424C8.48491 5.81377 8.42846 5.6775 8.42846 5.53542C8.42846 5.39333 8.48491 5.25707 8.58538 5.1566C8.68585 5.05613 8.82211 4.99969 8.9642 4.99969H10.75C11.44 4.99969 12 5.5597 12 6.24972V13.75C12 14.0815 11.8683 14.3994 11.6339 14.6339C11.3994 14.8683 11.0815 15 10.75 15H1.82111C1.48958 15 1.17163 14.8683 0.937204 14.6339C0.702776 14.3994 0.571075 14.0815 0.571075 13.75V6.24972C0.571075 5.5597 1.13109 4.99969 1.82111 4.99969H3.60688C3.74897 4.99969 3.88523 5.05613 3.9857 5.1566C4.08617 5.25707 4.14262 5.39333 4.14262 5.53542C4.14262 5.6775 4.08617 5.81377 3.9857 5.91424C3.88523 6.0147 3.74897 6.07115 3.60688 6.07115H1.82111C1.77375 6.07115 1.72833 6.08996 1.69484 6.12345C1.66135 6.15694 1.64254 6.20236 1.64254 6.24972ZM6.66412 0.156676L8.98563 2.47818C9.05614 2.54366 9.1077 2.62695 9.13485 2.71927C9.16201 2.8116 9.16375 2.90954 9.13992 3.00277C9.11608 3.096 9.06753 3.18108 8.9994 3.24904C8.93126 3.317 8.84606 3.36532 8.75276 3.38892C8.65963 3.41279 8.56179 3.41113 8.46953 3.3841C8.37727 3.35707 8.29399 3.30569 8.22846 3.23534L6.82127 1.82816V9.46411C6.82127 9.6062 6.76483 9.74246 6.66436 9.84293C6.56389 9.9434 6.42763 9.99984 6.28554 9.99984C6.14346 9.99984 6.00719 9.9434 5.90672 9.84293C5.80625 9.74246 5.74981 9.6062 5.74981 9.46411V1.82816L4.34262 3.23534C4.241 3.32993 4.10668 3.38143 3.96788 3.37903C3.82907 3.37663 3.6966 3.32052 3.59831 3.22249C3.50028 3.1242 3.44417 2.99173 3.44177 2.85293C3.43937 2.71412 3.49088 2.5798 3.58546 2.47818L5.90696 0.156676C6.00741 0.0563515 6.14357 0 6.28554 0C6.42751 0 6.56367 0.0563515 6.66412 0.156676Z" fill="black"/>
</svg>
