<svg width="13" height="15" viewBox="0 0 13 15" fill="none" xmlns="http://www.w3.org/2000/svg">
<path d="M1 14.2417L0.5 14.456L0.5 1.66667C0.5 1.20833 0.663333 0.815835 0.99 0.489168C1.31667 0.162501 1.70889 -0.000554141 2.16667 0H10.5C10.9583 0 11.3508 0.163335 11.6775 0.490001C12.0042 0.816668 12.1672 1.20889 12.1667 1.66667V14.456L11.6667 14.2417M1 14.2417V14.7857L6.33333 12.5L11.6667 14.7857V14.2417M1 14.2417L6.13637 12.0404L6.33333 11.956L6.53029 12.0404L11.6667 14.2417M1 14.2417V1.66667C1 1.34212 1.10982 1.07646 1.34355 0.842721C1.57727 0.609003 1.84246 0.499608 2.16606 0.500001H2.16667H10.5C10.8245 0.500001 11.0902 0.609818 11.3239 0.843555C11.5577 1.07727 11.6671 1.34247 11.6667 1.66606V1.66667V14.2417" stroke="black"/>
</svg>
