<svg width="12" height="13" viewBox="0 0 12 13" fill="none" xmlns="http://www.w3.org/2000/svg">
<path fill-rule="evenodd" clip-rule="evenodd" d="M10.875 6.5C10.875 7.79293 10.3614 9.03291 9.44715 9.94715C8.53291 10.8614 7.29293 11.375 6 11.375C4.70707 11.375 3.46709 10.8614 2.55285 9.94715C1.63861 9.03291 1.125 7.79293 1.125 6.5C1.125 5.20707 1.63861 3.96709 2.55285 3.05285C3.46709 2.13861 4.70707 1.625 6 1.625C7.29293 1.625 8.53291 2.13861 9.44715 3.05285C10.3614 3.96709 10.875 5.20707 10.875 6.5ZM12 6.5C12 8.0913 11.3679 9.61742 10.2426 10.7426C9.11742 11.8679 7.5913 12.5 6 12.5C4.4087 12.5 2.88258 11.8679 1.75736 10.7426C0.632141 9.61742 0 8.0913 0 6.5C0 4.9087 0.632141 3.38258 1.75736 2.25736C2.88258 1.13214 4.4087 0.5 6 0.5C7.5913 0.5 9.11742 1.13214 10.2426 2.25736C11.3679 3.38258 12 4.9087 12 6.5ZM6.5625 3.3125C6.5625 3.16332 6.50324 3.02024 6.39775 2.91475C6.29226 2.80926 6.14918 2.75 6 2.75C5.85082 2.75 5.70774 2.80926 5.60225 2.91475C5.49676 3.02024 5.4375 3.16332 5.4375 3.3125V6.7325L5.6025 6.8975L7.293 8.588C7.3445 8.64327 7.4066 8.68759 7.4756 8.71834C7.5446 8.74908 7.61908 8.76561 7.69461 8.76694C7.77014 8.76828 7.84516 8.75438 7.9152 8.72609C7.98524 8.6978 8.04887 8.65569 8.10228 8.60228C8.15569 8.54887 8.1978 8.48524 8.22609 8.4152C8.25438 8.34516 8.26828 8.27014 8.26694 8.19461C8.26561 8.11908 8.24908 8.0446 8.21834 7.9756C8.18759 7.9066 8.14327 7.8445 8.088 7.793L6.5625 6.26675V3.3125Z" fill="black"/>
</svg>
